<svg width="1200" height="720" viewBox="0 0 1200 720" xmlns="http://www.w3.org/2000/svg" font-family="-apple-system, BlinkMacSystemFont, 'PingFang SC', 'Hiragino Sans GB', 'Microsoft YaHei', sans-serif">
  <defs>
    <filter id="shadow" x="-10%" y="-10%" width="120%" height="130%">
      <feDropShadow dx="0" dy="12" stdDeviation="18" flood-color="#00000014"/>
    </filter>
    <filter id="soft" x="-10%" y="-10%" width="120%" height="130%">
      <feDropShadow dx="0" dy="2" stdDeviation="4" flood-color="#00000010"/>
    </filter>
  </defs>

  <rect width="1200" height="720" fill="#ede7dc"/>
  <rect x="20" y="20" width="1160" height="680" rx="28" fill="#f6f1e8" stroke="#e1d9cb" stroke-width="1.5" filter="url(#shadow)"/>

  <text x="56" y="74" font-size="34" font-weight="300" fill="#1f1b16" font-family="Georgia, 'Times New Roman', serif">下午好</text>
  <text x="56" y="99" font-size="13" fill="#a89f90">2026年4月21日 星期二</text>

  <g transform="translate(1088 52)">
    <circle cx="18" cy="18" r="18" fill="#f5efe6" stroke="#ddd2c3"/>
    <path d="M18 9.5v3.6l2.5-2.5m-2.5 9.9a7.4 7.4 0 1 1 5.6-12.2l1.7 1.8" fill="none" stroke="#9f9381" stroke-width="1.8" stroke-linecap="round" stroke-linejoin="round"/>
  </g>

  <text x="56" y="146" font-size="12" font-weight="700" letter-spacing="1.6" fill="#9f9587">快捷方式</text>
  <line x1="124" y1="141" x2="1142" y2="141" stroke="#ddd3c5"/>

  <g transform="translate(56 160)">
    <g>
      <circle cx="30" cy="30" r="25" fill="#ffffff" stroke="#ddd2c3" filter="url(#soft)"/>
      <text x="30" y="36" text-anchor="middle" font-size="18" fill="#d14836" font-weight="700">G</text>
      <text x="30" y="72" text-anchor="middle" font-size="11" fill="#7b7266">Gmail</text>
    </g>
    <g transform="translate(82 0)">
      <circle cx="30" cy="30" r="25" fill="#ffffff" stroke="#ddd2c3" filter="url(#soft)"/>
      <text x="30" y="36" text-anchor="middle" font-size="17" fill="#1d9bf0" font-weight="700">X</text>
      <text x="30" y="72" text-anchor="middle" font-size="11" fill="#7b7266">X</text>
    </g>
    <g transform="translate(164 0)">
      <circle cx="30" cy="30" r="25" fill="#ffffff" stroke="#ddd2c3" filter="url(#soft)"/>
      <text x="30" y="36" text-anchor="middle" font-size="16" fill="#0a66c2" font-weight="700">in</text>
      <text x="30" y="72" text-anchor="middle" font-size="11" fill="#7b7266">领英</text>
    </g>
    <g transform="translate(246 0)">
      <circle cx="30" cy="30" r="25" fill="#ffffff" stroke="#ddd2c3" filter="url(#soft)"/>
      <text x="30" y="36" text-anchor="middle" font-size="16" fill="#24292f" font-weight="700">GH</text>
      <text x="30" y="72" text-anchor="middle" font-size="11" fill="#7b7266">GitHub</text>
    </g>
    <g transform="translate(328 0)">
      <circle cx="30" cy="30" r="25" fill="#ffffff" stroke="#ddd2c3" filter="url(#soft)"/>
      <text x="30" y="36" text-anchor="middle" font-size="16" fill="#ff4f64" font-weight="700">F</text>
      <text x="30" y="72" text-anchor="middle" font-size="11" fill="#7b7266">Figma</text>
    </g>
  </g>

  <text x="56" y="280" font-size="12" font-weight="700" letter-spacing="1.6" fill="#9f9587">标签页管理</text>
  <line x1="144" y1="275" x2="862" y2="275" stroke="#ddd3c5"/>
  <text x="878" y="280" font-size="11" fill="#b0a596">6 个域名 · 12 个标签页</text>

  <g transform="translate(56 294)">
    <rect width="330" height="36" rx="18" fill="#ffffff" stroke="#ddd2c3" filter="url(#soft)"/>
    <circle cx="24" cy="18" r="5.5" fill="none" stroke="#c7bcac" stroke-width="1.5"/>
    <line x1="28" y1="22" x2="32" y2="26" stroke="#c7bcac" stroke-width="1.5" stroke-linecap="round"/>
    <text x="42" y="23" font-size="12.5" fill="#b6ac9f">搜索标签页...</text>
  </g>

  <text x="56" y="356" font-size="13" font-weight="600" fill="#4b4338">当前窗口</text>
  <rect x="760" y="340" width="94" height="26" rx="6" fill="#f6f0e7" stroke="#e0d6c8"/>
  <text x="773" y="357" font-size="10.5" fill="#b35a5a">×  关闭窗口</text>

  <g transform="translate(56 378)">
    <g>
      <rect width="390" height="126" rx="12" fill="#ffffff" filter="url(#soft)"/>
      <rect width="390" height="4" rx="2" fill="#5a7a62"/>
      <text x="18" y="28" font-size="15" font-weight="600" fill="#1f1b16">GitHub</text>
      <rect x="84" y="14" width="72" height="18" rx="9" fill="#f1ebe1"/>
      <text x="96" y="26" font-size="10" fill="#7b7266">▣  3 个标签页</text>
      <text x="166" y="26" font-size="10" fill="#5a7a62">2 分钟前</text>
      <rect x="18" y="42" width="146" height="24" rx="12" fill="#f6f1e8" stroke="#e7ddcf"/>
      <text x="30" y="58" font-size="11" fill="#3b342d">jacky-ch93/tab-out</text>
      <rect x="172" y="42" width="92" height="24" rx="12" fill="#f6f1e8" stroke="#e7ddcf"/>
      <text x="184" y="58" font-size="11" fill="#3b342d">Pull requests</text>
      <rect x="18" y="74" width="106" height="24" rx="12" fill="#f6f1e8" stroke="#e7ddcf"/>
      <text x="30" y="90" font-size="11" fill="#3b342d">Releases</text>
      <rect x="18" y="94" width="118" height="22" rx="6" fill="#f6f0e7" stroke="#e0d6c8"/>
      <text x="30" y="109" font-size="10.5" fill="#8d8376">×  关闭全部 3 个</text>
    </g>

    <g transform="translate(410 0)">
      <rect width="390" height="126" rx="12" fill="#ffffff" filter="url(#soft)"/>
      <rect width="390" height="4" rx="2" fill="#c8713a"/>
      <text x="18" y="28" font-size="15" font-weight="600" fill="#1f1b16">主页</text>
      <rect x="58" y="14" width="72" height="18" rx="9" fill="#f1ebe1"/>
      <text x="70" y="26" font-size="10" fill="#7b7266">▣  3 个标签页</text>
      <text x="140" y="26" font-size="10" fill="#c8713a">1 小时前</text>
      <rect x="18" y="42" width="60" height="24" rx="12" fill="#f6f1e8" stroke="#e7ddcf"/>
      <text x="30" y="58" font-size="11" fill="#3b342d">Gmail</text>
      <rect x="86" y="42" width="56" height="24" rx="12" fill="#f6f1e8" stroke="#e7ddcf"/>
      <text x="99" y="58" font-size="11" fill="#3b342d">X.com</text>
      <rect x="150" y="42" width="78" height="24" rx="12" fill="#f6f1e8" stroke="#e7ddcf"/>
      <text x="162" y="58" font-size="11" fill="#3b342d">YouTube</text>
      <rect x="18" y="74" width="72" height="24" rx="12" fill="#f6f1e8" stroke="#e7ddcf"/>
      <text x="30" y="90" font-size="11" fill="#3b342d">领英</text>
      <rect x="18" y="94" width="118" height="22" rx="6" fill="#f6f0e7" stroke="#e0d6c8"/>
      <text x="30" y="109" font-size="10.5" fill="#8d8376">×  关闭全部 3 个</text>
    </g>
  </g>

  <text x="56" y="536" font-size="13" font-weight="600" fill="#4b4338">窗口 2</text>
  <rect x="674" y="520" width="80" height="26" rx="6" fill="#f6f0e7" stroke="#e0d6c8"/>
  <text x="687" y="537" font-size="10.5" fill="#c8713a">↗  跳转过去</text>
  <rect x="762" y="520" width="94" height="26" rx="6" fill="#f6f0e7" stroke="#e0d6c8"/>
  <text x="775" y="537" font-size="10.5" fill="#b35a5a">×  关闭窗口</text>

  <g transform="translate(56 558)">
    <g>
      <rect width="390" height="102" rx="12" fill="#ffffff" filter="url(#soft)"/>
      <rect width="390" height="4" rx="2" fill="#5a7a62"/>
      <text x="18" y="28" font-size="15" font-weight="600" fill="#1f1b16">Notion</text>
      <rect x="82" y="14" width="72" height="18" rx="9" fill="#f1ebe1"/>
      <text x="94" y="26" font-size="10" fill="#7b7266">▣  2 个标签页</text>
      <text x="164" y="26" font-size="10" fill="#5a7a62">8 分钟前</text>
      <rect x="18" y="42" width="118" height="24" rx="12" fill="#f6f1e8" stroke="#e7ddcf"/>
      <text x="30" y="58" font-size="11" fill="#3b342d">Tab Out roadmap</text>
      <rect x="144" y="42" width="124" height="24" rx="12" fill="#f6f1e8" stroke="#e7ddcf"/>
      <text x="156" y="58" font-size="11" fill="#3b342d">Weekly planning</text>
      <rect x="18" y="72" width="118" height="22" rx="6" fill="#f6f0e7" stroke="#e0d6c8"/>
      <text x="30" y="87" font-size="10.5" fill="#8d8376">×  关闭全部 2 个</text>
    </g>

    <g transform="translate(410 0)">
      <rect width="390" height="102" rx="12" fill="#ffffff" filter="url(#soft)"/>
      <rect width="390" height="4" rx="2" fill="#c8713a"/>
      <text x="18" y="28" font-size="15" font-weight="600" fill="#1f1b16">ChatGPT</text>
      <rect x="88" y="14" width="72" height="18" rx="9" fill="#f1ebe1"/>
      <text x="100" y="26" font-size="10" fill="#7b7266">▣  2 个标签页</text>
      <rect x="168" y="14" width="74" height="18" rx="9" fill="#f7e7dc"/>
      <text x="180" y="26" font-size="10" fill="#c8713a">1 个重复</text>
      <rect x="18" y="42" width="92" height="24" rx="12" fill="#f6f1e8" stroke="#e7ddcf"/>
      <text x="30" y="58" font-size="11" fill="#3b342d">New chat</text>
      <rect x="118" y="42" width="174" height="24" rx="12" fill="#f6f1e8" stroke="#e7ddcf"/>
      <text x="130" y="58" font-size="11" fill="#3b342d">Summarize this paper</text>
      <rect x="18" y="72" width="118" height="22" rx="6" fill="#f6f0e7" stroke="#e0d6c8"/>
      <text x="30" y="87" font-size="10.5" fill="#8d8376">×  关闭全部 2 个</text>
      <rect x="144" y="72" width="108" height="22" rx="6" fill="#f6f0e7" stroke="#e0d6c8"/>
      <text x="156" y="87" font-size="10.5" fill="#c8713a">关闭重复项</text>
    </g>
  </g>

  <g transform="translate(886 246)">
    <text x="0" y="0" font-size="12" font-weight="700" letter-spacing="1.6" fill="#9f9587">稍后阅读</text>
    <line x1="78" y1="-5" x2="258" y2="-5" stroke="#ddd3c5"/>
    <text x="266" y="0" font-size="11" fill="#b0a596">3</text>

    <rect x="0" y="18" width="258" height="364" rx="16" fill="#fbf8f1" stroke="#e2d9cb" filter="url(#soft)"/>

    <g transform="translate(16 38)">
      <rect width="226" height="74" rx="12" fill="#ffffff" stroke="#e8dfd2"/>
      <circle cx="18" cy="18" r="7" fill="#ffffff" stroke="#cfbfae" stroke-width="1.5"/>
      <text x="36" y="21" font-size="12" fill="#2f2923">把拖拽交互细节再打磨一下</text>
      <text x="36" y="40" font-size="10.5" fill="#9b8f80">github.com · 40 分钟前保存</text>
      <text x="36" y="58" font-size="10.5" fill="#b0a596">留着等会处理</text>
    </g>

    <g transform="translate(16 124)">
      <rect width="226" height="74" rx="12" fill="#ffffff" stroke="#e8dfd2"/>
      <circle cx="18" cy="18" r="7" fill="#ffffff" stroke="#cfbfae" stroke-width="1.5"/>
      <text x="36" y="21" font-size="12" fill="#2f2923">适合新标签页的安静界面笔记</text>
      <text x="36" y="40" font-size="10.5" fill="#9b8f80">figma.com · 昨天保存</text>
      <text x="36" y="58" font-size="10.5" fill="#b0a596">准备好再看</text>
    </g>

    <g transform="translate(16 210)">
      <rect width="226" height="74" rx="12" fill="#ffffff" stroke="#e8dfd2"/>
      <circle cx="18" cy="18" r="7" fill="#ffffff" stroke="#cfbfae" stroke-width="1.5"/>
      <text x="36" y="21" font-size="12" fill="#2f2923">值得回顾的 async 模式整理</text>
      <text x="36" y="40" font-size="10.5" fill="#9b8f80">stackoverflow.com · 2 天前</text>
      <text x="36" y="58" font-size="10.5" fill="#b0a596">之后归档</text>
    </g>

    <g transform="translate(16 310)">
      <rect width="226" height="40" rx="10" fill="#f6f1e8" stroke="#e4dacc"/>
      <text x="14" y="25" font-size="11" fill="#6e6559">▾  归档</text>
      <text x="198" y="25" font-size="11" fill="#ad9f90">12</text>
    </g>
  </g>

  <line x1="20" y1="650" x2="1180" y2="650" stroke="#ddd3c5"/>
  <rect x="20" y="650" width="1160" height="50" rx="0 0 28 28" fill="#ece5d9"/>
  <text x="56" y="680" font-size="24" font-weight="300" fill="#1f1b16" font-family="Georgia, serif">12</text>
  <text x="56" y="696" font-size="10" fill="#a79d8f" letter-spacing="0.8">标签页数</text>
  <text x="600" y="682" font-size="11" fill="#b7ac9d" text-anchor="middle">Tab Out · 由 jacky-h.c 持续开发 · fork 自 Zara 的原版</text>
</svg>
